<svg width="150" height="150" viewBox="0 0 150 150" fill="none" xmlns="http://www.w3.org/2000/svg">
<g clip-path="url(#clip0_33_26)">
<path d="M111.954 17.4253C111.768 17.4042 111.572 17.4022 111.374 17.4022H36.4486C36.2409 17.4022 36.0343 17.4044 35.8383 17.4265C35.9973 12.1885 39.4867 9.10617 45.2176 9.10617H102.575C108.305 9.10617 111.795 12.188 111.954 17.4253Z" fill="url(#paint0_linear_33_26)" fill-opacity="0.85"/>
<path d="M123.77 35.2004C121.584 34.8447 119.267 34.6648 116.832 34.6648H30.9604C28.526 34.6648 26.209 34.8447 24.0226 35.2003C24.6867 29.1204 29.108 25.5866 36.1205 25.5866H111.702C118.714 25.5866 123.111 29.1204 123.77 35.2004Z" fill="url(#paint1_linear_33_26)" fill-opacity="0.85"/>
<path d="M137.89 63.5475V121.146C137.89 133.799 130.433 140.754 116.832 140.754H30.9604C17.3294 140.754 9.90253 133.799 9.90253 121.146V63.5475C9.90253 50.8659 17.3294 43.9385 30.9604 43.9385H116.832C130.433 43.9385 137.89 50.8659 137.89 63.5475ZM40.5348 125.978H105.946C101.203 115.28 88.4367 107.961 73.2551 107.961C58.0432 107.961 45.2475 115.28 40.5348 125.978ZM55.3886 82.5979C55.3886 92.8774 63.1137 100.866 73.2551 100.866C83.3666 100.866 91.1214 92.8774 91.1214 82.5979C91.1214 72.8774 83.2469 64.6367 73.2551 64.6367C63.2035 64.6367 55.3886 72.8774 55.3886 82.5979Z" fill="url(#paint2_linear_33_26)" fill-opacity="0.85"/>
</g>
<defs>
<linearGradient id="paint0_linear_33_26" x1="73.8962" y1="9.10617" x2="73.8962" y2="17.4265" gradientUnits="userSpaceOnUse">
<stop stop-color="#564FE1"/>
<stop offset="1" stop-color="#92ADDF"/>
</linearGradient>
<linearGradient id="paint1_linear_33_26" x1="73.8965" y1="25.5866" x2="73.8965" y2="35.2004" gradientUnits="userSpaceOnUse">
<stop stop-color="#564FE1"/>
<stop offset="1" stop-color="#92ADDF"/>
</linearGradient>
<linearGradient id="paint2_linear_33_26" x1="73.8962" y1="43.9385" x2="73.8962" y2="140.754" gradientUnits="userSpaceOnUse">
<stop stop-color="#564FE1"/>
<stop offset="1" stop-color="#92ADDF"/>
</linearGradient>
<clipPath id="clip0_33_26">
<rect width="150" height="150" fill="white"/>
</clipPath>
</defs>
</svg>
