<svg width="250" height="250" viewBox="0 0 250 250" fill="none" xmlns="http://www.w3.org/2000/svg">
<g clip-path="url(#clip0_33_26)">
<path d="M186.59 29.0421C186.28 29.0069 185.953 29.0037 185.623 29.0037H60.7476C60.4016 29.0037 60.0572 29.0073 59.7305 29.0441C59.9954 20.3141 65.8112 15.1769 75.3627 15.1769H170.958C180.509 15.1769 186.324 20.3133 186.59 29.0421Z" fill="url(#paint0_linear_33_26)" fill-opacity="0.85"/>
<path d="M206.284 58.6674C202.64 58.0745 198.778 57.7747 194.721 57.7747H51.6006C47.5433 57.7747 43.6817 58.0745 40.0377 58.6672C41.1445 48.534 48.5134 42.6443 60.2008 42.6443H186.17C197.857 42.6443 205.185 48.5341 206.284 58.6674Z" fill="url(#paint1_linear_33_26)" fill-opacity="0.85"/>
<path d="M229.816 105.913V201.909C229.816 222.998 217.388 234.59 194.721 234.59H51.6006C28.8824 234.59 16.5042 222.998 16.5042 201.909V105.913C16.5042 84.7766 28.8824 73.2309 51.6006 73.2309H194.721C217.388 73.2309 229.816 84.7766 229.816 105.913ZM67.558 209.963H176.576C168.672 192.133 147.394 179.935 122.092 179.935C96.7387 179.935 75.4125 192.133 67.558 209.963ZM92.3144 137.663C92.3144 154.796 105.189 168.11 122.092 168.11C138.944 168.11 151.869 154.796 151.869 137.663C151.869 121.462 138.745 107.728 122.092 107.728C105.339 107.728 92.3144 121.462 92.3144 137.663Z" fill="url(#paint2_linear_33_26)" fill-opacity="0.85"/>
</g>
<defs>
<linearGradient id="paint0_linear_33_26" x1="123.16" y1="15.1769" x2="123.16" y2="29.0441" gradientUnits="userSpaceOnUse">
<stop stop-color="#4F8EE1"/>
<stop offset="1" stop-color="#92ADDF"/>
</linearGradient>
<linearGradient id="paint1_linear_33_26" x1="123.161" y1="42.6443" x2="123.161" y2="58.6674" gradientUnits="userSpaceOnUse">
<stop stop-color="#4F8EE1"/>
<stop offset="1" stop-color="#92ADDF"/>
</linearGradient>
<linearGradient id="paint2_linear_33_26" x1="123.16" y1="73.2309" x2="123.16" y2="234.59" gradientUnits="userSpaceOnUse">
<stop stop-color="#4F8EE1"/>
<stop offset="1" stop-color="#92ADDF"/>
</linearGradient>
<clipPath id="clip0_33_26">
<rect width="250" height="250" fill="white"/>
</clipPath>
</defs>
</svg>
